<svg width="20" height="20" viewBox="0 0 20 20" fill="none" xmlns="http://www.w3.org/2000/svg">
<path d="M16.1665 3.47831C16.4746 3.17514 16.8934 3.00319 17.3311 3.00004C17.769 2.9969 18.1902 3.16282 18.5029 3.46154C18.8156 3.76026 18.9943 4.16749 18.9999 4.59423C19.0055 5.02097 18.8376 5.43253 18.5328 5.73896L9.71539 16.4841C9.56391 16.6431 9.38112 16.7707 9.17792 16.8593C8.97474 16.9479 8.75532 16.9956 8.53279 16.9997C8.31023 17.0038 8.08914 16.9641 7.88266 16.8831C7.6762 16.802 7.48859 16.6812 7.33108 16.5279L1.48502 10.8314C1.17436 10.5284 0.999895 10.1176 1 9.6892C1.00011 9.26082 1.17478 8.85004 1.48558 8.5472C1.79639 8.24436 2.21788 8.07431 2.65733 8.07441C3.09677 8.0745 3.51819 8.24477 3.82884 8.54775L8.53279 12.9419L16.1226 3.52874C16.1366 3.51141 16.1516 3.49493 16.1676 3.47941L16.1665 3.47831Z" fill="white"/>
<path fill-rule="evenodd" clip-rule="evenodd" d="M18.5029 3.46154C18.1902 3.16282 17.769 2.9969 17.3311 3.00004C17.2348 3.00074 17.1393 3.00961 17.0458 3.02626C16.8428 3.06239 16.6488 3.13515 16.4737 3.24043C16.4699 3.2427 16.4661 3.24499 16.4623 3.24729C16.3558 3.31249 16.2565 3.38981 16.1665 3.47831L16.1676 3.47941C16.1516 3.49493 16.1366 3.51141 16.1226 3.52874L8.53279 12.9419L3.82884 8.54775C3.51819 8.24477 3.09677 8.0745 2.65733 8.07441C2.21788 8.07431 1.79639 8.24436 1.48558 8.5472C1.17478 8.85004 1.00011 9.26082 1 9.6892C0.999895 10.1176 1.17436 10.5284 1.48502 10.8314L7.33108 16.5279C7.48859 16.6812 7.6762 16.802 7.88266 16.8831C8.08914 16.9641 8.31023 17.0038 8.53279 16.9997C8.75532 16.9956 8.97474 16.9479 9.17792 16.8593C9.38112 16.7707 9.56391 16.6431 9.71539 16.4841L18.5328 5.73896C18.8376 5.43253 19.0055 5.02097 18.9999 4.59423C18.9943 4.16749 18.8156 3.76026 18.5029 3.46154ZM8.92846 15.9428L17.7478 5.19541L17.7784 5.16458C17.9135 5.02877 18.0029 4.82834 17.9999 4.60427C17.997 4.38025 17.9025 4.18341 17.7655 4.05253C17.6318 3.92478 17.476 3.87403 17.3394 3.87501C17.216 3.8759 17.0771 3.91916 16.9537 4.02339L16.9262 4.04996L8.64219 14.3241L3.09166 9.13906L3.08449 9.13207C2.95091 9.00179 2.79431 8.94944 2.65708 8.94941C2.51981 8.94938 2.36322 9.00165 2.22961 9.13183C2.09277 9.26517 2.00006 9.4644 2 9.68939C1.99994 9.9142 2.09244 10.1134 2.22907 10.2468L8.0747 15.9429C8.07473 15.9429 8.07468 15.9429 8.0747 15.9429C8.14289 16.0093 8.218 16.0557 8.29204 16.0848C8.36563 16.1136 8.43991 16.1262 8.51177 16.1249C8.58363 16.1236 8.6582 16.1082 8.7319 16.0761C8.7992 16.0468 8.86675 16.0029 8.92846 15.9428Z" fill="white"/>
</svg>
